<?xml version="1.0" standalone="no"?><!DOCTYPE svg PUBLIC "-//W3C//DTD SVG 1.1//EN" "http://www.w3.org/Graphics/SVG/1.1/DTD/svg11.dtd"><svg t="1626932807467" class="icon" viewBox="0 0 1024 1024" version="1.1" xmlns="http://www.w3.org/2000/svg" p-id="6335" xmlns:xlink="http://www.w3.org/1999/xlink" width="200" height="200"><defs><style type="text/css">@font-face { font-family: feedback-iconfont; src: url("//at.alicdn.com/t/font_1031158_1uhr8ri0pk5.eot?#iefix") format("embedded-opentype"), url("//at.alicdn.com/t/font_1031158_1uhr8ri0pk5.woff2") format("woff2"), url("//at.alicdn.com/t/font_1031158_1uhr8ri0pk5.woff") format("woff"), url("//at.alicdn.com/t/font_1031158_1uhr8ri0pk5.ttf") format("truetype"), url("//at.alicdn.com/t/font_1031158_1uhr8ri0pk5.svg#iconfont") format("svg"); }
</style></defs><path d="M1003.8733 418.283102l-159.99984-63.999936a32.002016 32.002016 0 1 0-23.756776 59.4329l139.87826 55.951304v470.54801L767.999232 844.225716V575.999424a31.999968 31.999968 0 1 0-63.999936 0v269.434611l-159.99984 91.402148v-136.847223a31.999968 31.999968 0 0 0-63.999936 0v136.847223l-159.99984-91.402148V575.999424a31.999968 31.999968 0 1 0-63.999936 0v268.226292l-191.999808 95.989664V469.66737l139.87826-55.951304a32.002016 32.002016 0 1 0-23.756776-59.4329L20.125676 418.283102A32.016352 32.016352 0 0 0 0 447.999552v544.009696a31.999968 31.999968 0 0 0 46.313426 28.610531l240.686863-120.340359 208.875311 119.35732a0.073728 0.073728 0 0 0 0.059392 0.04096c0.032768 0.02048 0.065536 0.02048 0.096256 0.04096l0.09216 0.06144a30.552033 30.552033 0 0 0 3.422204 1.413119 34.154462 34.154462 0 0 0 4.26598 1.740798 32.00816 32.00816 0 0 0 16.383984 0 34.154462 34.154462 0 0 0 4.26598-1.740798 30.552033 30.552033 0 0 0 3.422204-1.413119l0.09216-0.06144c0.03072-0.02048 0.063488-0.02048 0.096256-0.04096a0.073728 0.073728 0 0 0 0.059392-0.04096l208.877359-119.35732 240.684815 120.340359A31.999968 31.999968 0 0 0 1023.998976 992.009248V447.999552a32.0184 32.0184 0 0 0-20.125676-29.71645zM511.999488 703.999296a31.991776 31.991776 0 0 0 25.395175-12.533747C561.001935 660.663659 767.999232 386.784893 767.999232 255.999744a255.999744 255.999744 0 0 0-511.999488 0c0 130.785149 207.001393 404.663915 230.604569 435.465805a31.991776 31.991776 0 0 0 25.395175 12.533747z m0-639.99936A192.204608 192.204608 0 0 1 703.999296 255.999744c0 81.469359-121.651078 265.666294-191.999808 362.434198-70.342586-96.767903-191.999808-280.964839-191.999808-362.434198A192.204608 192.204608 0 0 1 511.999488 63.999936zM639.99936 255.999744a127.999872 127.999872 0 1 0-127.999872 127.999872 128.1248 128.1248 0 0 0 127.999872-127.999872z m-191.999808 0A63.999936 63.999936 0 1 1 511.999488 319.99968 64.079808 64.079808 0 0 1 447.999552 255.999744z" p-id="6336"></path></svg>