<svg id="图层_1" data-name="图层 1" xmlns="http://www.w3.org/2000/svg" width="111.45" height="65.15" viewBox="0 0 111.45 65.15">
  <defs>
    <style>
      .cls-1 {
        fill: #3166f7;
      }

      .cls-2 {
        fill: #232323;
      }

      .cls-3 {
        fill: #ffc50b;
      }

      .cls-4 {
        fill: #2cf251;
      }

      .cls-5 {
        fill: #ff3b3b;
      }
    </style>
  </defs>
  <title>对话框</title>
  <g>
    <g>
      <path class="cls-1" d="M151.85,70l-73.47-11c-6.76-1-12.29,3.69-12.29,10.45v8.5A14.86,14.86,0,0,0,78.38,92l53.78,8.08,1.14,6.68,7.78-5.34,10.77,1.62c6.77,1,12.3-3.68,12.3-10.44v-8.5A14.86,14.86,0,0,0,151.85,70Z" transform="translate(-54.2 -57.28)"/>
      <path class="cls-2" d="M132.21,109.33l-1.35-7.91-52.7-7.93A16.36,16.36,0,0,1,64.59,77.87v-8.5a11.93,11.93,0,0,1,4.08-9.23,12.18,12.18,0,0,1,9.93-2.7l73.48,11a16.37,16.37,0,0,1,13.57,15.62v8.5a11.91,11.91,0,0,1-4.09,9.23,12.18,12.18,0,0,1-9.93,2.7L141.44,103Zm-55.66-49a8.76,8.76,0,0,0-9,9.08v8.5a13.27,13.27,0,0,0,11,12.65l54.86,8.25.92,5.44,6.34-4.35,11.36,1.71a9.23,9.23,0,0,0,7.53-2,9,9,0,0,0,3-7v-8.5a13.27,13.27,0,0,0-11-12.65l-73.47-11A11.11,11.11,0,0,0,76.55,60.29Z" transform="translate(-54.2 -57.28)"/>
    </g>
    <g>
      <path class="cls-3" d="M148.39,74.34,74.92,63.29c-6.77-1-12.3,3.69-12.3,10.45v8.49a14.86,14.86,0,0,0,12.3,14.15l53.78,8.08,1.13,6.68,7.78-5.34,10.78,1.62A10.34,10.34,0,0,0,160.68,97v-8.5A14.86,14.86,0,0,0,148.39,74.34Z" transform="translate(-54.2 -57.28)"/>
      <path class="cls-2" d="M128.75,113.7l-1.35-7.92L74.69,97.86A16.39,16.39,0,0,1,61.12,82.23V73.74a11.94,11.94,0,0,1,4.09-9.24,12.21,12.21,0,0,1,9.93-2.69l73.47,11a16.36,16.36,0,0,1,13.57,15.62V97a12,12,0,0,1-4.08,9.23,12.22,12.22,0,0,1-9.93,2.7L138,107.37Zm-55.67-49a8.78,8.78,0,0,0-9,9.09v8.49a13.27,13.27,0,0,0,11,12.66L130,103.14l.93,5.44,6.33-4.35,11.36,1.71a9.22,9.22,0,0,0,7.53-2,9,9,0,0,0,3-7v-8.5a13.29,13.29,0,0,0-11-12.66l-73.48-11A9.8,9.8,0,0,0,73.08,64.65Z" transform="translate(-54.2 -57.28)"/>
    </g>
    <g>
      <path class="cls-4" d="M144.93,78.71l-73.48-11A10.35,10.35,0,0,0,59.16,78.11V86.6a14.85,14.85,0,0,0,12.29,14.14l53.78,8.09,1.14,6.68,7.78-5.34,10.78,1.62a10.34,10.34,0,0,0,12.29-10.44v-8.5A14.85,14.85,0,0,0,144.93,78.71Z" transform="translate(-54.2 -57.28)"/>
      <path class="cls-2" d="M125.28,118.07l-1.34-7.92-52.71-7.92A16.39,16.39,0,0,1,57.66,86.6V78.11a12,12,0,0,1,4.08-9.24,12.19,12.19,0,0,1,9.94-2.69l73.47,11a16.39,16.39,0,0,1,13.57,15.63v8.5a12,12,0,0,1-4.08,9.23,12.2,12.2,0,0,1-9.94,2.69l-10.19-1.53ZM69.62,69a8.78,8.78,0,0,0-9,9.09V86.6a13.27,13.27,0,0,0,11,12.66l54.85,8.25.92,5.43,6.34-4.34,11.36,1.71a9.23,9.23,0,0,0,7.53-2,9,9,0,0,0,3-7v-8.5a13.27,13.27,0,0,0-11-12.66l-73.47-11A11,11,0,0,0,69.62,69Z" transform="translate(-54.2 -57.28)"/>
    </g>
    <g>
      <path class="cls-5" d="M141.46,83.08,68,72A10.34,10.34,0,0,0,55.7,82.47V91A14.85,14.85,0,0,0,68,105.11l53.78,8.09,1.13,6.68,7.79-5.34,10.77,1.62a10.35,10.35,0,0,0,12.3-10.45V97.22A14.86,14.86,0,0,0,141.46,83.08Z" transform="translate(-54.2 -57.28)"/>
      <path class="cls-2" d="M121.82,122.44l-1.35-7.92-52.7-7.92A16.38,16.38,0,0,1,54.2,91v-8.5a12,12,0,0,1,4.08-9.23,12.18,12.18,0,0,1,9.93-2.69l73.48,11a16.39,16.39,0,0,1,13.57,15.63v8.49a11.94,11.94,0,0,1-4.09,9.24,12.18,12.18,0,0,1-9.93,2.69l-10.19-1.53Zm-55.66-49a8.76,8.76,0,0,0-9,9.08V91a13.27,13.27,0,0,0,11,12.66l54.86,8.25.92,5.43,6.34-4.34,11.36,1.71a9.23,9.23,0,0,0,7.53-2,9,9,0,0,0,3-7V97.22a13.28,13.28,0,0,0-11-12.66l-73.47-11A11.22,11.22,0,0,0,66.16,73.39Z" transform="translate(-54.2 -57.28)"/>
    </g>
  </g>
</svg>
