<svg id="图层_1" data-name="图层 1" xmlns="http://www.w3.org/2000/svg" width="90.57" height="122.02" viewBox="0 0 90.57 122.02">
  <defs>
    <style>
      .cls-1 {
        fill: #ffce00;
      }

      .cls-2 {
        fill: #232323;
      }

      .cls-3 {
        isolation: isolate;
      }

      .cls-4 {
        fill: #7d5b24;
      }

      .cls-5 {
        fill: #a3762f;
      }

      .cls-6 {
        fill: #d49a3d;
      }

      .cls-7 {
        fill: #ff2c27;
      }

      .cls-8 {
        fill: #dd2424;
      }

      .cls-9 {
        fill: #ff6464;
      }

      .cls-10 {
        fill: #ffe471;
      }

      .cls-11 {
        fill: #fff;
      }

      .cls-12 {
        fill: #ff8d8d;
      }
    </style>
  </defs>
  <title>棒冰</title>
  <g>
    <g>
      <g>
        <path class="cls-1" d="M124.18,56.07l.16.11-9.42-6.87-.27-.18c-.51-.36-1-.71-1.56-1a.05.05,0,0,1,0,0l-.23-.14-.3-.16c-.46-.27-.93-.52-1.4-.76l-.2-.1-.18-.1-.23-.1-.77-.34-.56-.24-.83-.31-.54-.2-1-.29-.47-.15c-.48-.13-1-.25-1.45-.36s-1-.21-1.46-.29l-.48-.07-.58-.08A30.45,30.45,0,0,1,75,58.69c-1.06,0-2-.26-3-.39h0l-.27.36c-.1.15-.19.3-.29.44s-.38.56-.56.85-.32.45-.46.68l-.1.14a2.69,2.69,0,0,1-.16.29q-.42.69-.81,1.41l-.24.44c-.31.6-.61,1.21-.89,1.83-.06.12-.1.25-.16.37s-.2.5-.31.75-.17.42-.26.64a1.54,1.54,0,0,1-.08.19l-.2.54-.06.18c-.19.53-.37,1.07-.54,1.61l-.06.2L51.2,120.64h0l9.42,6.87,13.11,2.92-7,25.12,3.12,2.1,12.94,2.75,7.3-26.31,29,6.46,15.3-51.41C138.29,76,133.81,63,124.18,56.07Z" transform="translate(-48.2 -41.38)"/>
        <path class="cls-2" d="M102.42,44.38l.58.08.48.07c.49.08,1,.18,1.46.29s1,.23,1.45.36l.47.15,1,.29.54.2.83.31.56.24.77.34.23.1.18.1.2.1c.47.24.94.49,1.4.76l.3.16.23.14a.05.05,0,0,0,0,0c.53.33,1,.68,1.56,1l.27.18,9.42,6.87-.16-.11C133.81,63,138.29,76,134.39,89.14l-15.3,51.41-29-6.46-7.3,26.31-12.94-2.75-3.12-2.1,7-25.12-13.11-2.92-9.42-6.87h0L66.5,69.23l.06-.2c.17-.54.35-1.08.54-1.61l.06-.18.2-.54a1.54,1.54,0,0,0,.08-.19c.09-.22.18-.43.26-.64s.2-.51.31-.75.1-.25.16-.37c.28-.62.58-1.23.89-1.83l.24-.44q.39-.72.81-1.41a2.69,2.69,0,0,0,.16-.29l.1-.14c.14-.23.31-.45.46-.68s.37-.57.56-.85.19-.29.29-.44l.27-.36h0c1,.13,2,.35,3,.39l1.2,0a30.36,30.36,0,0,0,26.24-14.33m0-3a3,3,0,0,0-2.55,1.42A27.22,27.22,0,0,1,76.18,55.71l-1.1,0a14.35,14.35,0,0,1-1.58-.19c-.39-.07-.77-.13-1.17-.18l-.37,0a3,3,0,0,0-2.37,1.16l0,.06-.07.1a3.46,3.46,0,0,0-.22.31c-.09.11-.16.23-.24.35l-.08.12c-.22.31-.42.61-.62.92a2.17,2.17,0,0,1-.15.22l-.31.47-.14.21-.15.26,0,.05c-.3.5-.6,1-.88,1.52l-.08.15c-.06.11-.12.22-.17.33-.35.66-.68,1.33-1,2l-.12.28,0,.12c-.09.19-.17.39-.25.58l-.09.24,0,.07c-.09.2-.17.41-.25.61l-.09.22-.22.58-.07.21c-.21.59-.4,1.17-.58,1.73a2.19,2.19,0,0,0-.07.23l-15.29,51.4a2.92,2.92,0,0,0,0,1.55,3,3,0,0,0,1.16,1.74l9.42,6.86a3,3,0,0,0,1.11.5l10,2.24-6.13,22.08A3,3,0,0,0,65.07,158l3.12,2.11a2.93,2.93,0,0,0,1.06.45l12.93,2.74a2.7,2.7,0,0,0,.63.07,3,3,0,0,0,2.89-2.2l6.54-23.57,26.2,5.85a3,3,0,0,0,.66.07,3,3,0,0,0,2.87-2.14L137.26,90c4.12-13.84-.36-28.37-11.15-36.24h0l-9.42-6.87a3.28,3.28,0,0,0-.31-.2c-.58-.41-1.13-.78-1.69-1.12l-.09-.06,0,0-.2-.12-.32-.18c-.52-.29-1-.57-1.54-.83l-.19-.09a1.74,1.74,0,0,0-.27-.14L111.8,44l-.88-.39-.1,0-.52-.22-.92-.35-.16-.06-.45-.16-1-.33-.15,0-.36-.11c-.57-.16-1.09-.3-1.62-.41s-1.06-.22-1.61-.32l-.38,0-.16,0-.45-.06-.16,0-.41,0Z" transform="translate(-48.2 -41.38)"/>
      </g>
      <g>
        <g class="cls-3">
          <polygon class="cls-4" points="21.67 116.27 18.55 114.17 30.4 71.51 33.51 73.62 21.67 116.27"/>
          <polygon class="cls-5" points="33.51 73.62 30.4 71.51 43.33 74.25 46.45 76.36 33.51 73.62"/>
          <polygon class="cls-6" points="46.45 76.36 34.6 119.02 21.67 116.27 33.51 73.62 46.45 76.36"/>
        </g>
        <path class="cls-7" d="M114.36,51.69a24.29,24.29,0,0,0-5-.65C104.18,60.32,93,66.53,80.62,66.24a35.43,35.43,0,0,0-4.7,9.86l-15.3,51.41,58.47,13,15.3-51.41C139.45,72.13,130.44,55.27,114.36,51.69Z" transform="translate(-48.2 -41.38)"/>
        <path class="cls-8" d="M132.24,65.28a32,32,0,0,1-.06,18.58L118.84,128.7a8,8,0,0,1-8.74,5.64l-49.48-6.83,58.47,13,15.3-51.41A31.3,31.3,0,0,0,132.24,65.28Z" transform="translate(-48.2 -41.38)"/>
        <g>
          <path class="cls-9" d="M80.62,66.24,72,58.3h0l-.27.36c-.45.64-.89,1.3-1.31,2l-.1.14-.16.29q-.42.69-.81,1.41l-.24.44c-.31.6-.61,1.21-.89,1.83-.06.12-.1.25-.16.37-.23.52-.44,1-.65,1.58l-.2.54c-.24.65-.46,1.31-.66,2L51.2,120.64l9.42,6.87L75.92,76.1c.2-.68.43-1.34.66-2,.07-.18.14-.36.2-.54.21-.53.43-1.06.66-1.58l.15-.37q.42-.93.9-1.83c.07-.15.16-.29.23-.44.26-.47.53-.95.81-1.41l.26-.43c.27-.44.57-.86.86-1.28Z" transform="translate(-48.2 -41.38)"/>
          <path class="cls-9" d="M114.92,49.31c-.6-.44-1.23-.85-1.87-1.24l-.23-.14c-.61-.37-1.25-.7-1.9-1l-.18-.1-.23-.1-.77-.34-.56-.24-.83-.31-.54-.2-1-.29-.47-.15c-.48-.13-1-.25-1.45-.36s-1-.21-1.46-.29l-.48-.07-.58-.08,7,6.66c.2,0,.41,0,.61,0l.88.07.59.06c.32,0,.64.08,1,.13l.49.07c.48.08,1,.18,1.45.29s1,.23,1.46.36l.46.15,1,.29.55.2.82.31.56.24.78.34.41.2q1,.48,1.89,1l.23.14c.64.39,1.27.8,1.87,1.24Z" transform="translate(-48.2 -41.38)"/>
        </g>
      </g>
      <path class="cls-10" d="M86.62,63a2,2,0,0,1-.34-4c10.16-1.8,14.36-8.9,14.4-9a2,2,0,0,1,3.47,2c-.21.36-5.19,8.79-17.18,10.9A1.39,1.39,0,0,1,86.62,63Z" transform="translate(-48.2 -41.38)"/>
    </g>
    <g>
      <g>
        <circle class="cls-11" cx="44.29" cy="46.37" r="7.8"/>
        <path class="cls-2" d="M87.71,86.88A8.4,8.4,0,0,0,90,95.12a4.5,4.5,0,0,0,.48.16,7.79,7.79,0,0,0,5.31-14.6A8.42,8.42,0,0,0,87.71,86.88Z" transform="translate(-48.2 -41.38)"/>
      </g>
      <g>
        <circle class="cls-11" cx="66.47" cy="53.4" r="7.8"/>
        <path class="cls-2" d="M109.89,93.91a8.41,8.41,0,0,0,2.26,8.24l.48.16a7.79,7.79,0,0,0,5.31-14.6A8.43,8.43,0,0,0,109.89,93.91Z" transform="translate(-48.2 -41.38)"/>
      </g>
      <path class="cls-2" d="M99.56,113.14a6,6,0,0,1-2.43-.49,8,8,0,0,1-4.08-4.9l1.92-.53-1,.27,1-.27a6.14,6.14,0,0,0,3,3.6c1.44.6,3.22.34,5.32-.78l.94,1.76A9.88,9.88,0,0,1,99.56,113.14Z" transform="translate(-48.2 -41.38)"/>
      <path class="cls-2" d="M105.42,114.12a5.49,5.49,0,0,1-3-6l1.94.46-1-.23,1,.22a3.44,3.44,0,0,0,2,3.79Z" transform="translate(-48.2 -41.38)"/>
      <path class="cls-2" d="M93.76,80.05l-2-.19a4.77,4.77,0,0,1,2.64-3.71L95.24,78l-.41-.91.42.9A2.78,2.78,0,0,0,93.76,80.05Z" transform="translate(-48.2 -41.38)"/>
      <path class="cls-2" d="M97.82,82l-1.61-1.2A5,5,0,0,1,99.3,79l.28,2A3,3,0,0,0,97.82,82Z" transform="translate(-48.2 -41.38)"/>
      <path class="cls-2" d="M117.69,87.49,115.75,87a4,4,0,0,1,3.16-2.88l.34,2-.17-1,.18,1A2.09,2.09,0,0,0,117.69,87.49Z" transform="translate(-48.2 -41.38)"/>
      <path class="cls-2" d="M120.67,89.66l-1.54-1.27A4.51,4.51,0,0,1,123,87.06l-.13,2A2.77,2.77,0,0,0,120.67,89.66Z" transform="translate(-48.2 -41.38)"/>
    </g>
    <ellipse class="cls-12" cx="79.98" cy="96.13" rx="3.55" ry="1.63" transform="translate(-84.6 100.51) rotate(-71.7)"/>
    <ellipse class="cls-12" cx="120.18" cy="109.42" rx="3.55" ry="1.63" transform="translate(-69.65 147.78) rotate(-71.7)"/>
  </g>
</svg>
