<svg id="图层_1" data-name="图层 1" xmlns="http://www.w3.org/2000/svg" width="93.74" height="79.72" viewBox="0 0 93.74 79.72">
  <defs>
    <style>
      .cls-1 {
        fill: #ac7444;
      }

      .cls-2 {
        fill: #8e5b35;
      }

      .cls-3 {
        fill: #232323;
      }

      .cls-4 {
        fill: #fff;
      }

      .cls-5 {
        fill: #e0e0e0;
      }

      .cls-6 {
        fill: #fba2df;
      }

      .cls-7 {
        fill: #fc7112;
      }

      .cls-8 {
        fill: #94ed3e;
      }
    </style>
  </defs>
  <title>椰子</title>
  <g>
    <path class="cls-1" d="M54.55,36a41.76,41.76,0,1,0,67.66,16.18Z" transform="translate(-39.26 -30.61)"/>
    <path class="cls-2" d="M121.3,52c.91,12.24-.09,57.51-66.21,45.65a41.76,41.76,0,0,0,67.12-45.44Z" transform="translate(-39.26 -30.61)"/>
    <path class="cls-3" d="M83.09,110.33A43.73,43.73,0,0,1,53.21,34.59l.77-.72,69.71,16.67.37,1a43.75,43.75,0,0,1-41,58.8Zm-28-72.13a39.78,39.78,0,1,0,65.58,15.68Z" transform="translate(-39.26 -30.61)"/>
    <ellipse class="cls-4" cx="87.99" cy="43.81" rx="5.86" ry="34.71" transform="translate(-14.34 88.6) rotate(-76.55)"/>
    <ellipse class="cls-5" cx="87.65" cy="45.23" rx="2.91" ry="23.58" transform="translate(-15.98 89.35) rotate(-76.55)"/>
    <g>
      <path class="cls-3" d="M64.59,80.41c1.45.88,4.16,2.31,6.54,2.34A.87.87,0,0,1,71.89,84c-2,4.23-6,7.1-8,5.6s-1.45-5-.65-8.62A.88.88,0,0,1,64.59,80.41Z" transform="translate(-39.26 -30.61)"/>
      <path class="cls-6" d="M64.86,84.25a.61.61,0,0,0-.78.45c-.25,1.2-.59,3.73.86,4.21s3-1.52,3.75-2.61a.6.6,0,0,0-.31-.92C67.51,85.09,66,84.61,64.86,84.25Z" transform="translate(-39.26 -30.61)"/>
      <path class="cls-3" d="M73.89,85.82c-2.83-.79-3-3.77-2.76-5.24l1,.19c0,.13-.6,3.35,2,4.09Z" transform="translate(-39.26 -30.61)"/>
      <ellipse class="cls-4" cx="68.1" cy="75.65" rx="0.87" ry="2.81" transform="translate(-63.94 86.9) rotate(-72.29)"/>
      <g>
        <g>
          <ellipse class="cls-4" cx="60" cy="61.77" rx="10.22" ry="5.94" transform="translate(-56.36 69.53) rotate(-72.29)"/>
          <path class="cls-3" d="M58,72.68a4.53,4.53,0,0,1-3.12-1.25c-2.92-2.7-3.08-9-.38-14.41,1.69-3.35,4.19-5.62,6.67-6.07a4.53,4.53,0,0,1,4,1.17c2.91,2.7,3.08,9,.37,14.4-1.68,3.36-4.18,5.63-6.67,6.08A5.69,5.69,0,0,1,58,72.68ZM62,52.87a2.59,2.59,0,0,0-.54.05c-1.85.33-3.85,2.25-5.24,5-2.25,4.47-2.27,10,0,12a2.58,2.58,0,0,0,2.32.67c1.84-.34,3.85-2.25,5.23-5,2.25-4.48,2.28-10,.06-12A2.58,2.58,0,0,0,62,52.87Z" transform="translate(-39.26 -30.61)"/>
        </g>
        <path class="cls-3" d="M64.91,57.7c-1.44-1.34-3.63-.49-5.23,1.86l1.42,3.92-3.18,1.08c-.18,1.94.22,3.69,1.22,4.61,1.65,1.53,4.28.2,5.87-3S66.56,59.23,64.91,57.7Z" transform="translate(-39.26 -30.61)"/>
      </g>
      <g>
        <g>
          <ellipse class="cls-4" cx="84.23" cy="70.13" rx="10.22" ry="5.94" transform="translate(-47.47 98.42) rotate(-72.29)"/>
          <path class="cls-3" d="M82.19,81a4.51,4.51,0,0,1-3.13-1.25c-2.91-2.7-3.08-9-.37-14.41,1.69-3.35,4.18-5.62,6.67-6.07a4.54,4.54,0,0,1,4,1.17c2.91,2.7,3.07,9,.37,14.4-1.69,3.36-4.18,5.63-6.67,6.08A5.8,5.8,0,0,1,82.19,81Zm4.07-19.81a2.62,2.62,0,0,0-.55.05c-1.84.33-3.85,2.25-5.23,5h0c-2.25,4.47-2.28,10-.06,12a2.59,2.59,0,0,0,2.32.67c1.85-.33,3.85-2.25,5.24-5,2.25-4.48,2.27-10,.06-12A2.6,2.6,0,0,0,86.26,61.23Z" transform="translate(-39.26 -30.61)"/>
        </g>
        <path class="cls-3" d="M89.13,66.06c-1.44-1.34-3.63-.49-5.22,1.86l1.42,3.92-3.19,1.08c-.18,1.94.23,3.69,1.22,4.61,1.65,1.53,4.28.2,5.88-3S90.78,67.59,89.13,66.06Z" transform="translate(-39.26 -30.61)"/>
      </g>
      <path class="cls-3" d="M66.26,86.43a.39.39,0,0,1-.18,0,.5.5,0,0,1-.28-.65,2.78,2.78,0,0,0-.09-2.46.5.5,0,0,1,.14-.69.51.51,0,0,1,.7.14,3.8,3.8,0,0,1,.18,3.38A.51.51,0,0,1,66.26,86.43Z" transform="translate(-39.26 -30.61)"/>
    </g>
    <path class="cls-3" d="M114.29,55.65c-9.78,0-24.18-3.27-28.12-4.22A156,156,0,0,1,62.39,44c-7.73-3.28-10.74-5.88-10.07-8.67s4.53-3.74,12.9-3.18a157.94,157.94,0,0,1,24.6,4.09,157.51,157.51,0,0,1,23.78,7.48c7.72,3.29,10.74,5.88,10.07,8.67C123.08,54.79,119.29,55.65,114.29,55.65ZM56.6,36.3c2.28,2.12,12.33,7,30.49,11.3s29.3,4.57,32.3,3.72c-2.28-2.12-12.34-7-30.49-11.29S59.59,35.45,56.6,36.3Z" transform="translate(-39.26 -30.61)"/>
    <path class="cls-7" d="M130.81,34.22l-14.58-3.53a2.85,2.85,0,0,0-3.16,1.37l-12,21.11,5.66,1.63,10.26-18,12.5,3a2.86,2.86,0,1,0,1.34-5.56Z" transform="translate(-39.26 -30.61)"/>
    <path class="cls-3" d="M111.57,51.6a119.12,119.12,0,0,1-14.36-1.86L95.39,53.4a130.57,130.57,0,0,0,15.27,2.12Z" transform="translate(-39.26 -30.61)"/>
    <g>
      <path class="cls-8" d="M114.29,52.36s14.38.51,14.84,13.4C124.05,68,114.19,63.69,114.29,52.36Z" transform="translate(-39.26 -30.61)"/>
      <path class="cls-3" d="M114.29,52.36s14.38.51,14.84,13.4a7.18,7.18,0,0,1-2.94.58c-5.21,0-12-4.58-11.9-14m-3-3.11,0,3.08a17.06,17.06,0,0,0,4.77,12.59,14.66,14.66,0,0,0,10.13,4.42,10.22,10.22,0,0,0,4.15-.83l1.85-.82-.07-2c-.43-12.41-11.78-16.09-17.72-16.3l-3.08-.11Z" transform="translate(-39.26 -30.61)"/>
    </g>
    <g>
      <path class="cls-8" d="M110.64,54s8.73,8.75,1.46,17.12C107.59,69.52,103.93,61,110.64,54Z" transform="translate(-39.26 -30.61)"/>
      <path class="cls-3" d="M110.64,54s8.73,8.75,1.46,17.12C107.59,69.52,103.93,61,110.64,54m0-4.3-2.12,2.23c-3.79,4-5.29,9-4.12,13.82,1,3.94,3.55,7.08,6.77,8.2l1.92.67,1.33-1.54c7.2-8.28,2.1-17.49-1.6-21.2l-2.18-2.18Z" transform="translate(-39.26 -30.61)"/>
    </g>
  </g>
</svg>
