<svg id="图层_1" data-name="图层 1" xmlns="http://www.w3.org/2000/svg" width="84.82" height="84.83" viewBox="0 0 84.82 84.83">
  <defs>
    <style>
      .cls-1 {
        fill: #ffdb27;
      }

      .cls-2 {
        fill: #eac324;
      }

      .cls-3 {
        fill: #232323;
      }

      .cls-4 {
        fill: #ff6464;
      }

      .cls-5 {
        fill: #cca811;
      }

      .cls-6 {
        fill: #b79713;
      }

      .cls-7 {
        fill: #ea3939;
      }

      .cls-8 {
        fill: #d22;
      }

      .cls-9 {
        fill: #ff2c27;
      }

      .cls-10 {
        fill: #fff;
      }
    </style>
  </defs>
  <title>表情</title>
  <g>
    <circle class="cls-1" cx="42.41" cy="42.41" r="40.7"/>
    <path class="cls-2" d="M157.5,78.59c-.07,1.27-.18,2.54-.36,3.83A47.15,47.15,0,0,1,91,119,40.7,40.7,0,0,0,157.5,78.59Z" transform="translate(-76.18 -46.81)"/>
    <path class="cls-3" d="M118.68,131.63A42.41,42.41,0,1,1,160.6,95h0a42.4,42.4,0,0,1-41.92,36.65Zm-.12-81.41a39.06,39.06,0,1,0,5.32.37A38.27,38.27,0,0,0,118.56,50.22Z" transform="translate(-76.18 -46.81)"/>
    <ellipse class="cls-4" cx="83.02" cy="82.67" rx="2.82" ry="5.17" transform="translate(-86.34 106.89) rotate(-82.2)"/>
    <ellipse class="cls-4" cx="137.2" cy="92.69" rx="2.82" ry="5.17" transform="translate(-49.44 169.23) rotate(-82.2)"/>
    <path class="cls-5" d="M120.8,94.24a2.56,2.56,0,0,1,2,3.35,15.77,15.77,0,0,1-30.6-4.76,2.56,2.56,0,0,1,3-2.58Z" transform="translate(-76.18 -46.81)"/>
    <path class="cls-6" d="M93.74,94a2.56,2.56,0,0,1,3-2.57l25.59,4a1.91,1.91,0,0,1,.34.1,2.56,2.56,0,0,0-1.84-1.27l-25.58-4a2.56,2.56,0,0,0-3,2.58,15.78,15.78,0,0,0,6.87,12.44A15.79,15.79,0,0,1,93.74,94Z" transform="translate(-76.18 -46.81)"/>
    <path class="cls-7" d="M118,104.42a15.73,15.73,0,0,0-22.72-2.85A15.75,15.75,0,0,0,118,104.42Z" transform="translate(-76.18 -46.81)"/>
    <g>
      <path class="cls-8" d="M97.42,80.87a1.94,1.94,0,0,1-1.22-.51C95.91,80.09,89,74,86.31,69.3a11.56,11.56,0,0,1-1.93-6.61c.28-4.86,4.14-8.6,8.58-8.34a7.89,7.89,0,0,1,5.8,3.18,7.75,7.75,0,0,1,6.11-2.5c4.46.26,7.85,4.42,7.57,9.28a11.46,11.46,0,0,1-2.64,6.29l0,.05C106.59,75.06,99,80.29,98.67,80.5a2,2,0,0,1-1.25.37Z" transform="translate(-76.18 -46.81)"/>
      <path class="cls-9" d="M104.87,55a7.75,7.75,0,0,0-6.11,2.5,8.56,8.56,0,0,0-1.16-1.24l-.17.16a8.67,8.67,0,0,0-.74-.85A7.58,7.58,0,0,0,93,54.35c-4.44-.26-8.3,3.48-8.58,8.34a11.56,11.56,0,0,0,1.93,6.61c2.11,3.79,7,8.4,9,10.24a2,2,0,0,0,.8.24,1.91,1.91,0,0,0,1.25-.37c.32-.21,7.92-5.44,11.1-9.85l0,0a11.42,11.42,0,0,0,2.63-6.29,9.1,9.1,0,0,0-2.54-6.95A7.52,7.52,0,0,0,104.87,55Z" transform="translate(-76.18 -46.81)"/>
      <ellipse class="cls-10" cx="88.12" cy="60.44" rx="1.19" ry="0.9" transform="translate(-75.34 75.28) rotate(-69.68)"/>
    </g>
    <g>
      <path class="cls-8" d="M126.08,85.88a2,2,0,0,1-1-.86c-.19-.34-5-8.22-6-13.55a11.55,11.55,0,0,1,.19-6.88c1.75-4.54,6.56-6.92,10.71-5.33a7.86,7.86,0,0,1,4.55,4.81,7.72,7.72,0,0,1,6.58-.52c4.17,1.61,6.13,6.6,4.38,11.14A11.42,11.42,0,0,1,141,79.88l0,0c-4.37,3.23-13.21,5.88-13.58,6a1.94,1.94,0,0,1-1.3,0Z" transform="translate(-76.18 -46.81)"/>
      <path class="cls-9" d="M141.06,63.55a7.72,7.72,0,0,0-6.58.52,8.68,8.68,0,0,0-.72-1.54l-.21.1a8.66,8.66,0,0,0-.45-1,7.74,7.74,0,0,0-3.17-2.34c-4.15-1.59-9,.79-10.71,5.33a11.55,11.55,0,0,0-.19,6.88c.86,4.25,4.07,10.13,5.43,12.5a1.89,1.89,0,0,0,2,.5c.36-.1,9.2-2.76,13.57-6l.06,0a11.35,11.35,0,0,0,4.42-5.19,9.09,9.09,0,0,0-.29-7.39A7.49,7.49,0,0,0,141.06,63.55Z" transform="translate(-76.18 -46.81)"/>
      <ellipse class="cls-10" cx="122.9" cy="65.35" rx="1.19" ry="0.9" transform="translate(-53.03 115.63) rotate(-72.23)"/>
    </g>
  </g>
</svg>
