<svg id="图层_1" data-name="图层 1" xmlns="http://www.w3.org/2000/svg" width="135.42" height="78.69" viewBox="0 0 135.42 78.69">
  <defs>
    <style>
      .cls-1 {
        fill: #fffce3;
      }

      .cls-2 {
        fill: #232323;
      }

      .cls-3 {
        fill: #efebd8;
      }

      .cls-4 {
        fill: #ffdac5;
      }

      .cls-5 {
        fill: #fff;
      }

      .cls-6 {
        fill: #ffe708;
      }

      .cls-7 {
        fill: #e5c2b3;
      }
    </style>
  </defs>
  <title>骨头</title>
  <g>
    <g>
      <path class="cls-1" d="M79.18,107.15l6.88-7.92L64.43,87c-.07-.75-.16-1.47-.24-2.15a9.4,9.4,0,1,0-18.66,2.27,10.57,10.57,0,0,0,.34,1.6,10.66,10.66,0,0,0-2.11,0,10.23,10.23,0,0,0,2.47,20.32,10.09,10.09,0,0,0,3-.86,14.33,14.33,0,0,0,1.93-.59L75.9,119.49Z" transform="translate(-33.26 -57.23)"/>
      <path class="cls-2" d="M76.89,121.62,51.11,109.23c-.44.15-.9.28-1.36.4a11.73,11.73,0,1,1-6.17-22.38l.45,0a10.9,10.9,0,0,1,21.65-2.55c.06.45.11.92.16,1.4L88.39,98.83l-7.85,9ZM51.25,106l23.67,11.38,2.9-10.92,5.9-6.8L63,87.91l-.08-.77c-.07-.74-.16-1.45-.24-2.12A7.9,7.9,0,1,0,47,86.93a7.69,7.69,0,0,0,.29,1.34L48,90.39l-2.21-.19a9.11,9.11,0,0,0-1.81,0,8.73,8.73,0,1,0,2.11,17.34,8.79,8.79,0,0,0,2.59-.73l.28-.1a12.78,12.78,0,0,0,1.72-.53Z" transform="translate(-33.26 -57.23)"/>
    </g>
    <path class="cls-3" d="M69.6,106.45c-3.15,9.35,7.62,10,9.09,6.42s-2.94-11.42-4.19-11.93S70.83,102.8,69.6,106.45Z" transform="translate(-33.26 -57.23)"/>
    <g>
      <g>
        <path class="cls-4" d="M131.07,82.14,112.8,68c-3.57-3.63-9.28,2.45-16,9.3l-5.32-4.26a7.76,7.76,0,0,0-10.92.73h0a7.76,7.76,0,0,0,.72,10.92L83.9,87l-10.32,6.9a7.76,7.76,0,0,0-2.13,10.74,7.64,7.64,0,0,0,3.34,2.77,7.73,7.73,0,0,0,7.78,12.12,7.77,7.77,0,0,0,1.86,7.28h0A7.77,7.77,0,0,0,94.14,128a7.73,7.73,0,0,0,14.48,2.25l6.64-12.76c1-1.94,9.59-13.84,9.59-13.84C131.1,94.83,137.91,88.81,131.07,82.14Z" transform="translate(-33.26 -57.23)"/>
        <path class="cls-2" d="M101.74,135.92a9.3,9.3,0,0,1-4.26-1,9.16,9.16,0,0,1-4.29-4.75,9.29,9.29,0,0,1-9.85-2.33,9.14,9.14,0,0,1-2.51-6.67A9.21,9.21,0,0,1,72.72,108a9.12,9.12,0,0,1-2.51-2.52,9.24,9.24,0,0,1,2.54-12.82l8.69-5.81-1.1-1a9.25,9.25,0,0,1-.86-13,9.27,9.27,0,0,1,13-.86l4.21,3.36c5.19-5.33,9.68-9.85,13.58-9.86a5,5,0,0,1,3.48,1.45l18.32,14.18c6.7,6.52,1.95,12.81-3.09,19.46-1,1.28-2,2.6-3,4-3.43,4.76-8.77,12.32-9.48,13.68L110,131A9.26,9.26,0,0,1,101.74,135.92Zm-6.51-10.36.39,2.19a6.23,6.23,0,0,0,11.67,1.81l6.64-12.75c1-2,8.82-12.8,9.7-14,1-1.42,2-2.76,3-4.06,5.51-7.28,8-11,3.45-15.45l-18.35-14.2a1.81,1.81,0,0,0-1.41-.63c-2.74,0-7.37,4.76-11.84,9.36L97,79.34l-6.38-5.1A6.26,6.26,0,0,0,86,72.67a6.17,6.17,0,0,0-4.28,2.11,6.24,6.24,0,0,0,.58,8.8l4,3.54-11.94,8a6.22,6.22,0,0,0,1,10.89l1.7.74L76,108.25A6.22,6.22,0,0,0,82.28,118l2.34-.46L84,119.86a6.23,6.23,0,0,0,9.32,6.88Z" transform="translate(-33.26 -57.23)"/>
      </g>
      <g>
        <line class="cls-4" x1="49.89" y1="44.25" x2="41.53" y2="50.15"/>
        <rect class="cls-2" x="73.85" y="102.92" width="10.23" height="3" transform="translate(-79.01 7.37) rotate(-35.19)"/>
      </g>
      <g>
        <line class="cls-4" x1="57.37" y1="53.99" x2="49.31" y2="62.26"/>
        <rect class="cls-2" x="80.83" y="113.85" width="11.54" height="3" transform="translate(-89.71 39.64) rotate(-45.74)"/>
      </g>
      <g>
        <line class="cls-4" x1="67.28" y1="62.61" x2="60.86" y2="71.18"/>
        <rect class="cls-2" x="91.97" y="122.62" width="10.71" height="3" transform="matrix(0.6, -0.8, 0.8, 0.6, -93.62, 70.39)"/>
      </g>
      <g>
        <polygon class="cls-5" points="76.07 5.73 66.74 15.98 97.16 41.63 106.61 31.21 76.07 5.73"/>
        <path class="cls-2" d="M130.56,100.94,97.84,73.35l11.35-12.47L142,88.29Zm-28.4-27.88,28.12,23.72,7.43-8.19L109.48,65Z" transform="translate(-33.26 -57.23)"/>
      </g>
      <g>
        <path class="cls-6" d="M110.15,60l-4.62,5a3.63,3.63,0,0,0,.4,5.27l26.48,22.09a3.91,3.91,0,0,0,5.36-.32l4.72-5.18a3.62,3.62,0,0,0-.42-5.27l-26.59-22A3.9,3.9,0,0,0,110.15,60Z" transform="translate(-33.26 -57.23)"/>
        <path class="cls-2" d="M134.93,94.76a5.43,5.43,0,0,1-3.48-1.25L105,71.42a5.22,5.22,0,0,1-1.88-3.65A5.07,5.07,0,0,1,104.42,64L109,59a5.38,5.38,0,0,1,7.4-.47l26.59,22a5.19,5.19,0,0,1,1.89,3.65,5,5,0,0,1-1.32,3.79l-4.72,5.18A5.34,5.34,0,0,1,134.93,94.76ZM113,60.24a2.32,2.32,0,0,0-1.72.74l-4.61,5a2,2,0,0,0-.55,1.55,2.21,2.21,0,0,0,.8,1.55l26.48,22.09a2.42,2.42,0,0,0,3.29-.18l4.73-5.18a2.07,2.07,0,0,0,.54-1.55,2.2,2.2,0,0,0-.81-1.55l-26.59-22A2.46,2.46,0,0,0,113,60.24Z" transform="translate(-33.26 -57.23)"/>
      </g>
      <circle class="cls-2" cx="76.63" cy="10.54" r="1.6"/>
      <path class="cls-7" d="M112.78,100.87s-8.88,13.46-6.27,20.46c1.36,3.5,3.67,2.7,3.67,2.7l3.87-7.56,6.29-9.16Z" transform="translate(-33.26 -57.23)"/>
    </g>
    <g>
      <path class="cls-1" d="M160,94.83a10.14,10.14,0,0,0-2.07-.42,9.57,9.57,0,0,0,.62-1.51,9.4,9.4,0,0,0-17.95-5.58c-.2.66-.42,1.35-.62,2.07l-30.19,11,2.72,7.52-2.6,9L113,122l36.3-10a15.05,15.05,0,0,0,1.78.93,10.36,10.36,0,0,0,2.83,1.39A10.23,10.23,0,1,0,160,94.83Z" transform="translate(-33.26 -57.23)"/>
      <path class="cls-2" d="M112.3,123.76l-4-6.65,2.65-9.11-3.06-8.47,30.88-11.29c.14-.47.28-.93.42-1.37A10.9,10.9,0,0,1,160,93.27l.43.12a11.73,11.73,0,1,1-10.08,20.91q-.66-.3-1.26-.63Zm-.79-7.08,2.18,3.59,35.83-9.84.56.35a11.29,11.29,0,0,0,1.59.82l.26.15a8.93,8.93,0,0,0,2.42,1.19,8.73,8.73,0,1,0,5.18-16.68h0a8.68,8.68,0,0,0-1.77-.36l-2.21-.21,1-2a7.74,7.74,0,0,0,0-7.28A7.9,7.9,0,0,0,142,87.77c-.2.64-.41,1.33-.61,2l-.21.73-29.5,10.78,2.37,6.58Z" transform="translate(-33.26 -57.23)"/>
    </g>
    <g>
      <line class="cls-1" x1="82.91" y1="46.21" x2="79.52" y2="50.7"/>
      <rect class="cls-2" x="111.66" y="104.18" width="5.63" height="3" transform="matrix(0.6, -0.8, 0.8, 0.6, -72.07, 76.33)"/>
    </g>
  </g>
</svg>
